<svg width="29" height="28" viewBox="0 0 29 28" fill="none" xmlns="http://www.w3.org/2000/svg">
<path fill-rule="evenodd" clip-rule="evenodd" d="M9.0625 2.625C9.0625 1.92881 9.34894 1.26113 9.8588 0.768845C10.3687 0.276562 11.0602 0 11.7812 0L17.2188 0C17.9398 0 18.6313 0.276562 19.1412 0.768845C19.6511 1.26113 19.9375 1.92881 19.9375 2.625V4.375C19.9375 5.07119 19.6511 5.73887 19.1412 6.23116C18.6313 6.72344 17.9398 7 17.2188 7H11.7812C11.0602 7 10.3687 6.72344 9.8588 6.23116C9.34894 5.73887 9.0625 5.07119 9.0625 4.375V2.625ZM18.125 2.625C18.125 2.39294 18.0295 2.17038 17.8596 2.00628C17.6896 1.84219 17.4591 1.75 17.2188 1.75H11.7812C11.5409 1.75 11.3104 1.84219 11.1404 2.00628C10.9705 2.17038 10.875 2.39294 10.875 2.625V4.375C10.875 4.60706 10.9705 4.82962 11.1404 4.99372C11.3104 5.15781 11.5409 5.25 11.7812 5.25H17.2188C17.4591 5.25 17.6896 5.15781 17.8596 4.99372C18.0295 4.82962 18.125 4.60706 18.125 4.375V2.625Z" fill="#3A312E"/>
<path d="M5.4375 2.625H7.25V4.375H5.4375C4.95679 4.375 4.49578 4.55937 4.15587 4.88756C3.81596 5.21575 3.625 5.66087 3.625 6.125V24.5C3.625 24.9641 3.81596 25.4092 4.15587 25.7374C4.49578 26.0656 4.95679 26.25 5.4375 26.25H23.5625C24.0432 26.25 24.5042 26.0656 24.8441 25.7374C25.184 25.4092 25.375 24.9641 25.375 24.5V6.125C25.375 5.66087 25.184 5.21575 24.8441 4.88756C24.5042 4.55937 24.0432 4.375 23.5625 4.375H21.75V2.625H23.5625C24.5239 2.625 25.4459 2.99375 26.1258 3.65013C26.8056 4.3065 27.1875 5.19674 27.1875 6.125V24.5C27.1875 25.4283 26.8056 26.3185 26.1258 26.9749C25.4459 27.6313 24.5239 28 23.5625 28H5.4375C4.47609 28 3.55406 27.6313 2.87424 26.9749C2.19442 26.3185 1.8125 25.4283 1.8125 24.5V6.125C1.8125 5.19674 2.19442 4.3065 2.87424 3.65013C3.55406 2.99375 4.47609 2.625 5.4375 2.625Z" fill="#3A312E"/>
<path d="M14.5 12.2184C17.516 9.29067 25.0578 14.4129 14.5 20.9999C3.94218 14.4129 11.484 9.29242 14.5 12.2184Z" fill="#3A312E"/>
</svg>
