<svg width="20" height="19" viewBox="0 0 20 19" fill="none" xmlns="http://www.w3.org/2000/svg">
<path d="M13.4875 15.333L11.47 13.4152C10.6898 13.6802 9.84643 13.7293 9.03802 13.5567C8.22962 13.3841 7.48941 12.9971 6.90352 12.4405C6.31764 11.8839 5.91018 11.1807 5.72854 10.4127C5.5469 9.6447 5.59856 8.8435 5.8775 8.10231L3.3025 5.65606C1.1725 7.45512 0 9.5 0 9.5C0 9.5 3.75 16.0312 10 16.0312C11.2005 16.0273 12.3874 15.7897 13.4875 15.333ZM6.5125 3.667C7.61257 3.21032 8.79949 2.97268 10 2.96875C16.25 2.96875 20 9.5 20 9.5C20 9.5 18.8263 11.5437 16.6987 13.3451L14.1213 10.8965C14.4002 10.1553 14.4519 9.35411 14.2702 8.58612C14.0886 7.81814 13.6811 7.11494 13.0952 6.55835C12.5093 6.00176 11.7691 5.61467 10.9607 5.44211C10.1523 5.26955 9.30895 5.31863 8.52875 5.58363L6.5125 3.667Z" fill="#8D4337"/>
<path d="M6.90625 9.07959C6.83749 9.53596 6.88155 10.0013 7.03495 10.4386C7.18835 10.876 7.44686 11.2735 7.79001 11.5995C8.13316 11.9254 8.55151 12.171 9.01191 12.3168C9.47231 12.4625 9.96211 12.5043 10.4425 12.439L6.90625 9.07959ZM13.0937 9.92034L9.5575 6.55972C10.0379 6.49439 10.5277 6.53626 10.9881 6.68198C11.4485 6.82771 11.8668 7.0733 12.21 7.39929C12.5531 7.72528 12.8116 8.12271 12.965 8.56009C13.1184 8.99747 13.1625 9.46278 13.0937 9.91915V9.92034ZM17.0575 17.0453L2.0575 2.79534L2.9425 1.95459L17.9425 16.2046L17.0575 17.0453Z" fill="#8D4337"/>
</svg>
