<svg width="96" height="16" viewBox="0 0 96 16" fill="none" xmlns="http://www.w3.org/2000/svg">
<g clip-path="url(#clip0_7_228)">
<path d="M3.612 14.4778C3.226 14.6634 2.788 14.3381 2.866 13.9228L3.696 9.48842L0.172996 6.34217C-0.156004 6.04779 0.0149962 5.50967 0.455996 5.45154L5.354 4.79904L7.538 0.74248C7.735 0.376855 8.268 0.376855 8.465 0.74248L10.649 4.79904L15.547 5.45154C15.988 5.50967 16.159 6.04779 15.829 6.34217L12.307 9.48842L13.137 13.9228C13.215 14.3381 12.777 14.6634 12.391 14.4778L8 12.3628L3.612 14.4778Z" fill="black"/>
</g>
<g clip-path="url(#clip1_7_228)">
<path d="M23.612 14.4778C23.226 14.6634 22.788 14.3381 22.866 13.9228L23.696 9.48842L20.173 6.34217C19.844 6.04779 20.015 5.50967 20.456 5.45154L25.354 4.79904L27.538 0.74248C27.735 0.376855 28.268 0.376855 28.465 0.74248L30.649 4.79904L35.547 5.45154C35.988 5.50967 36.159 6.04779 35.829 6.34217L32.307 9.48842L33.137 13.9228C33.215 14.3381 32.777 14.6634 32.391 14.4778L28 12.3628L23.612 14.4778Z" fill="black"/>
</g>
<g clip-path="url(#clip2_7_228)">
<path d="M43.612 14.4778C43.226 14.6634 42.788 14.3381 42.866 13.9228L43.696 9.48842L40.173 6.34217C39.844 6.04779 40.015 5.50967 40.456 5.45154L45.354 4.79904L47.538 0.74248C47.735 0.376855 48.268 0.376855 48.465 0.74248L50.649 4.79904L55.547 5.45154C55.988 5.50967 56.159 6.04779 55.829 6.34217L52.307 9.48842L53.137 13.9228C53.215 14.3381 52.777 14.6634 52.391 14.4778L48 12.3628L43.612 14.4778Z" fill="black"/>
</g>
<g clip-path="url(#clip3_7_228)">
<path d="M82.866 14.8499C82.788 15.2939 83.226 15.6409 83.612 15.4429L88.002 13.1869L92.391 15.4429C92.777 15.6409 93.215 15.2939 93.137 14.8509L92.307 10.1209L95.829 6.76492C96.159 6.45092 95.989 5.87692 95.547 5.81492L90.649 5.11892L88.465 0.791923C88.4234 0.704212 88.3578 0.630106 88.2757 0.578215C88.1937 0.526325 88.0986 0.498779 88.0015 0.498779C87.9044 0.498779 87.8093 0.526325 87.7273 0.578215C87.6452 0.630106 87.5796 0.704212 87.538 0.791923L85.354 5.11992L80.456 5.81592C80.015 5.87792 79.844 6.45192 80.173 6.76592L83.696 10.1219L82.866 14.8519V14.8499ZM87.771 12.0829L84.085 13.9769L84.779 10.0199C84.7953 9.92884 84.7889 9.83515 84.7605 9.7471C84.7321 9.65904 84.6824 9.57932 84.616 9.51492L81.71 6.74492L85.762 6.16892C85.8459 6.15625 85.9255 6.12343 85.9939 6.07327C86.0624 6.02312 86.1176 5.95711 86.155 5.88092L88 2.22292L89.847 5.88092C89.8844 5.95711 89.9396 6.02312 90.0081 6.07327C90.0765 6.12343 90.1561 6.15625 90.24 6.16892L94.292 6.74392L91.386 9.51392C91.3194 9.57842 91.2697 9.65831 91.2413 9.74655C91.2128 9.8348 91.2066 9.92868 91.223 10.0199L91.917 13.9769L88.231 12.0829C88.1597 12.0462 88.0807 12.027 88.0005 12.027C87.9203 12.027 87.8423 12.0462 87.771 12.0829Z" fill="black"/>
</g>
<path d="M65.353 4.619L67.537 0.292C67.579 0.204954 67.6445 0.131433 67.7262 0.0798096C67.8079 0.0281859 67.9024 0.000533281 67.999 0C68.182 0 68.365 0.097 68.464 0.292L70.648 4.619L75.546 5.315C75.6681 5.33419 75.7798 5.39491 75.8624 5.48691C75.9449 5.57891 75.9931 5.69655 75.999 5.82C76.006 5.90219 75.9943 5.98489 75.9649 6.06194C75.9355 6.13899 75.889 6.2084 75.829 6.265L72.306 9.621L73.136 14.351C73.214 14.794 72.776 15.141 72.39 14.943L67.999 12.687L63.61 14.943C63.5641 14.9668 63.5149 14.9837 63.464 14.993C63.122 15.053 62.796 14.739 62.864 14.351L63.694 9.621L60.172 6.265C60.1173 6.2132 60.0737 6.15069 60.0441 6.08137C60.0146 6.01204 59.9995 5.93737 60 5.862C60.0001 5.75544 60.0295 5.65095 60.085 5.56C60.1244 5.49407 60.1781 5.43783 60.2421 5.39542C60.3062 5.35302 60.3789 5.32553 60.455 5.315L65.353 4.619ZM67.999 11.527C68.0797 11.5267 68.1593 11.5459 68.231 11.583L71.917 13.477L71.223 9.52C71.2066 9.429 71.2128 9.33536 71.2411 9.24731C71.2693 9.15926 71.3187 9.07949 71.385 9.015L74.292 6.245L70.24 5.669C70.1561 5.65633 70.0765 5.62351 70.0081 5.57335C69.9396 5.52319 69.8844 5.45719 69.847 5.381L68 1.723L67.999 1.726V11.526V11.527Z" fill="black"/>
<defs>
<clipPath id="clip0_7_228">
<rect width="16" height="15" fill="white"/>
</clipPath>
<clipPath id="clip1_7_228">
<rect width="16" height="15" fill="white" transform="translate(20)"/>
</clipPath>
<clipPath id="clip2_7_228">
<rect width="16" height="15" fill="white" transform="translate(40)"/>
</clipPath>
<clipPath id="clip3_7_228">
<rect width="16" height="16" fill="white" transform="translate(80)"/>
</clipPath>
</defs>
</svg>
