<svg width="94" height="15" viewBox="0 0 94 15" fill="none" xmlns="http://www.w3.org/2000/svg">
<g clip-path="url(#clip0_12_386)">
<path d="M3.612 14.4778C3.226 14.6634 2.788 14.3381 2.866 13.9228L3.696 9.48842L0.172996 6.34217C-0.156004 6.04779 0.0149962 5.50967 0.455996 5.45154L5.354 4.79904L7.538 0.74248C7.735 0.376855 8.268 0.376855 8.465 0.74248L10.649 4.79904L15.547 5.45154C15.988 5.50967 16.159 6.04779 15.829 6.34217L12.307 9.48842L13.137 13.9228C13.215 14.3381 12.777 14.6634 12.391 14.4778L8 12.3628L3.612 14.4778Z" fill="black"/>
</g>
<g clip-path="url(#clip1_12_386)">
<path d="M23.612 14.4778C23.226 14.6634 22.788 14.3381 22.866 13.9228L23.696 9.48842L20.173 6.34217C19.844 6.04779 20.015 5.50967 20.456 5.45154L25.354 4.79904L27.538 0.74248C27.735 0.376855 28.268 0.376855 28.465 0.74248L30.649 4.79904L35.547 5.45154C35.988 5.50967 36.159 6.04779 35.829 6.34217L32.307 9.48842L33.137 13.9228C33.215 14.3381 32.777 14.6634 32.391 14.4778L28 12.3628L23.612 14.4778Z" fill="black"/>
</g>
<g clip-path="url(#clip2_12_386)">
<path d="M43.612 14.4778C43.226 14.6634 42.788 14.3381 42.866 13.9228L43.696 9.48842L40.173 6.34217C39.844 6.04779 40.015 5.50967 40.456 5.45154L45.354 4.79904L47.538 0.74248C47.735 0.376855 48.268 0.376855 48.465 0.74248L50.649 4.79904L55.547 5.45154C55.988 5.50967 56.159 6.04779 55.829 6.34217L52.307 9.48842L53.137 13.9228C53.215 14.3381 52.777 14.6634 52.391 14.4778L48 12.3628L43.612 14.4778Z" fill="black"/>
</g>
<path d="M83.353 4.619L85.537 0.292C85.579 0.204954 85.6445 0.131433 85.7262 0.0798096C85.8079 0.0281859 85.9024 0.000533281 85.999 0C86.182 0 86.365 0.097 86.464 0.292L88.648 4.619L93.546 5.315C93.6681 5.33419 93.7798 5.39491 93.8624 5.48691C93.9449 5.57891 93.9931 5.69655 93.999 5.82C94.006 5.90219 93.9943 5.98489 93.9649 6.06194C93.9355 6.13899 93.889 6.2084 93.829 6.265L90.306 9.621L91.136 14.351C91.214 14.794 90.776 15.141 90.39 14.943L85.999 12.687L81.61 14.943C81.5641 14.9668 81.5149 14.9837 81.464 14.993C81.122 15.053 80.796 14.739 80.864 14.351L81.694 9.621L78.172 6.265C78.1173 6.2132 78.0737 6.15069 78.0441 6.08137C78.0146 6.01204 77.9995 5.93737 78 5.862C78.0001 5.75544 78.0295 5.65095 78.085 5.56C78.1244 5.49407 78.1781 5.43783 78.2421 5.39542C78.3062 5.35302 78.3789 5.32553 78.455 5.315L83.353 4.619ZM85.999 11.527C86.0797 11.5267 86.1593 11.5459 86.231 11.583L89.917 13.477L89.223 9.52C89.2066 9.429 89.2128 9.33536 89.2411 9.24731C89.2693 9.15926 89.3187 9.07949 89.385 9.015L92.292 6.245L88.24 5.669C88.1561 5.65633 88.0765 5.62351 88.0081 5.57335C87.9396 5.52319 87.8844 5.45719 87.847 5.381L86 1.723L85.999 1.726V11.526V11.527Z" fill="black"/>
<defs>
<clipPath id="clip0_12_386">
<rect width="16" height="15" fill="white"/>
</clipPath>
<clipPath id="clip1_12_386">
<rect width="16" height="15" fill="white" transform="translate(20)"/>
</clipPath>
<clipPath id="clip2_12_386">
<rect width="16" height="15" fill="white" transform="translate(40)"/>
</clipPath>
</defs>
</svg>
