<svg width="5" height="22" viewBox="0 0 5 22" fill="none" xmlns="http://www.w3.org/2000/svg">
<path d="M4.84375 19.125C4.84375 19.7715 4.59682 20.3915 4.15728 20.8486C3.71774 21.3057 3.1216 21.5625 2.5 21.5625C1.8784 21.5625 1.28226 21.3057 0.842718 20.8486C0.40318 20.3915 0.15625 19.7715 0.15625 19.125C0.15625 18.4785 0.40318 17.8585 0.842718 17.4014C1.28226 16.9443 1.8784 16.6875 2.5 16.6875C3.1216 16.6875 3.71774 16.9443 4.15728 17.4014C4.59682 17.8585 4.84375 18.4785 4.84375 19.125ZM4.84375 11C4.84375 11.6465 4.59682 12.2665 4.15728 12.7236C3.71774 13.1807 3.1216 13.4375 2.5 13.4375C1.8784 13.4375 1.28226 13.1807 0.842718 12.7236C0.40318 12.2665 0.15625 11.6465 0.15625 11C0.15625 10.3535 0.40318 9.73355 0.842718 9.27643C1.28226 8.81931 1.8784 8.5625 2.5 8.5625C3.1216 8.5625 3.71774 8.81931 4.15728 9.27643C4.59682 9.73355 4.84375 10.3535 4.84375 11ZM4.84375 2.875C4.84375 3.52147 4.59682 4.14145 4.15728 4.59857C3.71774 5.05569 3.1216 5.3125 2.5 5.3125C1.8784 5.3125 1.28226 5.05569 0.842718 4.59857C0.40318 4.14145 0.15625 3.52147 0.15625 2.875C0.15625 2.22853 0.40318 1.60855 0.842718 1.15143C1.28226 0.694307 1.8784 0.4375 2.5 0.4375C3.1216 0.4375 3.71774 0.694307 4.15728 1.15143C4.59682 1.60855 4.84375 2.22853 4.84375 2.875Z" fill="#3A312E"/>
</svg>
