<svg width="17" height="12" viewBox="0 0 17 12" fill="none" xmlns="http://www.w3.org/2000/svg">
<path d="M0.6875 7.1875C0.6875 6.93886 0.76981 6.7004 0.916323 6.52459C1.06284 6.34877 1.26155 6.25 1.46875 6.25H15.5312C15.7385 6.25 15.9372 6.34877 16.0837 6.52459C16.2302 6.7004 16.3125 6.93886 16.3125 7.1875C16.3125 7.43614 16.2302 7.6746 16.0837 7.85041C15.9372 8.02623 15.7385 8.125 15.5312 8.125H1.46875C1.26155 8.125 1.06284 8.02623 0.916323 7.85041C0.76981 7.6746 0.6875 7.43614 0.6875 7.1875ZM0.6875 10.9375C0.6875 10.6889 0.76981 10.4504 0.916323 10.2746C1.06284 10.0988 1.26155 10 1.46875 10H10.8438C11.051 10 11.2497 10.0988 11.3962 10.2746C11.5427 10.4504 11.625 10.6889 11.625 10.9375C11.625 11.1861 11.5427 11.4246 11.3962 11.6004C11.2497 11.7762 11.051 11.875 10.8438 11.875H1.46875C1.26155 11.875 1.06284 11.7762 0.916323 11.6004C0.76981 11.4246 0.6875 11.1861 0.6875 10.9375ZM0.6875 1.5625C0.6875 1.31386 0.76981 1.0754 0.916323 0.899588C1.06284 0.723772 1.26155 0.625 1.46875 0.625H15.5312C15.7385 0.625 15.9372 0.723772 16.0837 0.899588C16.2302 1.0754 16.3125 1.31386 16.3125 1.5625V3.4375C16.3125 3.68614 16.2302 3.9246 16.0837 4.10041C15.9372 4.27623 15.7385 4.375 15.5312 4.375H1.46875C1.26155 4.375 1.06284 4.27623 0.916323 4.10041C0.76981 3.9246 0.6875 3.68614 0.6875 3.4375V1.5625Z" fill="#E0A64E"/>
</svg>
