<svg width="31" height="25" viewBox="0 0 31 25" fill="none" xmlns="http://www.w3.org/2000/svg">
<path d="M6.41486 1.13624C6.41486 0.834893 6.30225 0.545885 6.10178 0.332798C5.90132 0.119711 5.62944 0 5.34594 0C5.06245 0 4.79057 0.119711 4.59011 0.332798C4.38964 0.545885 4.27703 0.834893 4.27703 1.13624V21.1182L1.82706 18.5117C1.72768 18.406 1.60969 18.3222 1.47984 18.2651C1.34999 18.2079 1.21082 18.1785 1.07027 18.1785C0.929719 18.1785 0.790546 18.2079 0.660695 18.2651C0.530844 18.3222 0.412858 18.406 0.313475 18.5117C0.214091 18.6173 0.135255 18.7427 0.0814694 18.8808C0.0276833 19.0188 0 19.1667 0 19.3161C0 19.4655 0.0276833 19.6135 0.0814694 19.7515C0.135255 19.8895 0.214091 20.0149 0.313475 20.1206L4.58915 24.6633L4.60412 24.6792C4.80481 24.8872 5.0747 25.0025 5.355 25C5.6353 24.9974 5.90329 24.8772 6.1006 24.6656L10.3763 20.1206C10.577 19.9075 10.6899 19.6185 10.6901 19.3169C10.6903 19.0154 10.5778 18.7262 10.3773 18.5128C10.1769 18.2995 9.90496 18.1795 9.62131 18.1793C9.33766 18.179 9.06554 18.2986 8.86483 18.5117L6.41486 21.1182V1.13624ZM14.9662 2.27249C14.6827 2.27249 14.4108 2.15278 14.2104 1.93969C14.0099 1.7266 13.8973 1.43759 13.8973 1.13624C13.8973 0.834893 14.0099 0.545885 14.2104 0.332798C14.4108 0.119711 14.6827 0 14.9662 0H17.1041C17.3875 0 17.6594 0.119711 17.8599 0.332798C18.0604 0.545885 18.173 0.834893 18.173 1.13624C18.173 1.43759 18.0604 1.7266 17.8599 1.93969C17.6594 2.15278 17.3875 2.27249 17.1041 2.27249H14.9662ZM14.9662 9.08994C14.6827 9.08994 14.4108 8.97023 14.2104 8.75715C14.0099 8.54406 13.8973 8.25505 13.8973 7.9537C13.8973 7.65235 14.0099 7.36334 14.2104 7.15026C14.4108 6.93717 14.6827 6.81746 14.9662 6.81746H21.3797C21.6632 6.81746 21.9351 6.93717 22.1356 7.15026C22.336 7.36334 22.4486 7.65235 22.4486 7.9537C22.4486 8.25505 22.336 8.54406 22.1356 8.75715C21.9351 8.97023 21.6632 9.08994 21.3797 9.08994H14.9662ZM14.9662 15.9074C14.6827 15.9074 14.4108 15.7877 14.2104 15.5746C14.0099 15.3615 13.8973 15.0725 13.8973 14.7712C13.8973 14.4698 14.0099 14.1808 14.2104 13.9677C14.4108 13.7546 14.6827 13.6349 14.9662 13.6349H25.6554C25.9389 13.6349 26.2108 13.7546 26.4112 13.9677C26.6117 14.1808 26.7243 14.4698 26.7243 14.7712C26.7243 15.0725 26.6117 15.3615 26.4112 15.5746C26.2108 15.7877 25.9389 15.9074 25.6554 15.9074H14.9662ZM13.8973 21.5886C13.8973 21.89 14.0099 22.179 14.2104 22.3921C14.4108 22.6052 14.6827 22.7249 14.9662 22.7249H29.9311C30.2146 22.7249 30.4865 22.6052 30.6869 22.3921C30.8874 22.179 31 21.89 31 21.5886C31 21.2873 30.8874 20.9983 30.6869 20.7852C30.4865 20.5721 30.2146 20.4524 29.9311 20.4524H14.9662C14.6827 20.4524 14.4108 20.5721 14.2104 20.7852C14.0099 20.9983 13.8973 21.2873 13.8973 21.5886Z" fill="#3A312E"/>
</svg>
