<svg width="25" height="23" viewBox="0 0 25 23" fill="none" xmlns="http://www.w3.org/2000/svg">
<path d="M22.6562 1.875C22.8635 1.875 23.0622 1.97377 23.2087 2.14959C23.3552 2.3254 23.4375 2.56386 23.4375 2.8125V19.6875C23.4375 19.9361 23.3552 20.1746 23.2087 20.3504C23.0622 20.5262 22.8635 20.625 22.6562 20.625H2.34375C2.13655 20.625 1.93784 20.5262 1.79132 20.3504C1.64481 20.1746 1.5625 19.9361 1.5625 19.6875V2.8125C1.5625 2.56386 1.64481 2.3254 1.79132 2.14959C1.93784 1.97377 2.13655 1.875 2.34375 1.875H22.6562ZM2.34375 0C1.72215 0 1.12601 0.296316 0.686468 0.823762C0.24693 1.35121 0 2.06658 0 2.8125L0 19.6875C0 20.4334 0.24693 21.1488 0.686468 21.6762C1.12601 22.2037 1.72215 22.5 2.34375 22.5H22.6562C23.2779 22.5 23.874 22.2037 24.3135 21.6762C24.7531 21.1488 25 20.4334 25 19.6875V2.8125C25 2.06658 24.7531 1.35121 24.3135 0.823762C23.874 0.296316 23.2779 0 22.6562 0H2.34375Z" fill="#E0A64E"/>
</svg>
