<svg width="24" height="20" viewBox="0 0 24 20" fill="none" xmlns="http://www.w3.org/2000/svg">
<path d="M2.25 0C1.65326 0 1.08097 0.256807 0.65901 0.713927C0.237053 1.17105 0 1.79103 0 2.4375L0 17.0625C0 17.709 0.237053 18.329 0.65901 18.7861C1.08097 19.2432 1.65326 19.5 2.25 19.5H21.75C22.3467 19.5 22.919 19.2432 23.341 18.7861C23.7629 18.329 24 17.709 24 17.0625V2.4375C24 1.79103 23.7629 1.17105 23.341 0.713927C22.919 0.256807 22.3467 0 21.75 0H2.25ZM21.75 1.625C21.9489 1.625 22.1397 1.7106 22.2803 1.86298C22.421 2.01535 22.5 2.22201 22.5 2.4375V12.1875L16.8375 9.02363C16.6968 8.94729 16.5376 8.92081 16.3822 8.94793C16.2269 8.97505 16.0834 9.0544 15.972 9.17475L10.407 15.2035L6.417 12.324C6.27294 12.2201 6.10014 12.1734 5.92791 12.1917C5.75567 12.2101 5.5946 12.2924 5.472 12.4247L1.503 16.25V17.1275C1.50121 17.1059 1.50021 17.0842 1.5 17.0625V2.4375C1.5 2.22201 1.57902 2.01535 1.71967 1.86298C1.86032 1.7106 2.05109 1.625 2.25 1.625H21.75Z" fill="#3A312E"/>
</svg>
