<svg width="17" height="20" viewBox="0 0 17 20" fill="none" xmlns="http://www.w3.org/2000/svg">
<path d="M9.54922 19.5C11.8203 16.9922 17 10.9141 17 7.5C17 3.35938 13.1927 0 8.5 0C3.80729 0 0 3.35938 0 7.5C0 10.9141 5.17969 16.9922 7.45078 19.5C7.99531 20.0977 9.00469 20.0977 9.54922 19.5ZM8.5 5C9.25145 5 9.97212 5.26339 10.5035 5.73223C11.0348 6.20107 11.3333 6.83696 11.3333 7.5C11.3333 8.16304 11.0348 8.79893 10.5035 9.26777C9.97212 9.73661 9.25145 10 8.5 10C7.74855 10 7.02788 9.73661 6.49653 9.26777C5.96518 8.79893 5.66667 8.16304 5.66667 7.5C5.66667 6.83696 5.96518 6.20107 6.49653 5.73223C7.02788 5.26339 7.74855 5 8.5 5Z" fill="#D7D7D7"/>
</svg>
